<svg width="218" height="64" viewBox="0 0 218 64" fill="none" xmlns="http://www.w3.org/2000/svg">
<mask id="mask0_8_2029" style="mask-type:alpha" maskUnits="userSpaceOnUse" x="0" y="0" width="218" height="64">
<mask id="path-1-inside-1_8_2029" fill="white">
<path fill-rule="evenodd" clip-rule="evenodd" d="M0 5C0 2.23858 2.23858 0 5 0H203.929C205.255 0 206.527 0.526785 207.464 1.46447L216.536 10.5355C217.473 11.4732 218 12.745 218 14.0711V59C218 61.7614 215.761 64 213 64H14.0711C12.745 64 11.4732 63.4732 10.5355 62.5355L1.46447 53.4645C0.526784 52.5268 0 51.255 0 49.9289V5Z"/>
</mask>
<path fill-rule="evenodd" clip-rule="evenodd" d="M0 5C0 2.23858 2.23858 0 5 0H203.929C205.255 0 206.527 0.526785 207.464 1.46447L216.536 10.5355C217.473 11.4732 218 12.745 218 14.0711V59C218 61.7614 215.761 64 213 64H14.0711C12.745 64 11.4732 63.4732 10.5355 62.5355L1.46447 53.4645C0.526784 52.5268 0 51.255 0 49.9289V5Z" fill="#0CC0D8"/>
<path d="M1.46447 53.4645L2.17157 52.7574L1.46447 53.4645ZM10.5355 62.5355L9.82843 63.2426L10.5355 62.5355ZM216.536 10.5355L215.828 11.2426L216.536 10.5355ZM207.464 1.46447L208.172 0.75736L207.464 1.46447ZM203.929 -1H5V1H203.929V-1ZM217.243 9.82843L208.172 0.75736L206.757 2.17157L215.828 11.2426L217.243 9.82843ZM219 59V14.0711H217V59H219ZM14.0711 65H213V63H14.0711V65ZM0.757359 54.1716L9.82843 63.2426L11.2426 61.8284L2.17157 52.7574L0.757359 54.1716ZM-1 5V49.9289H1V5H-1ZM2.17157 52.7574C1.42143 52.0072 1 50.9898 1 49.9289H-1C-1 51.5202 -0.367859 53.0464 0.757359 54.1716L2.17157 52.7574ZM14.0711 63C13.0102 63 11.9928 62.5786 11.2426 61.8284L9.82843 63.2426C10.9536 64.3679 12.4798 65 14.0711 65V63ZM217 59C217 61.2091 215.209 63 213 63V65C216.314 65 219 62.3137 219 59H217ZM215.828 11.2426C216.579 11.9928 217 13.0102 217 14.0711H219C219 12.4798 218.368 10.9536 217.243 9.82843L215.828 11.2426ZM5 -1C1.68629 -1 -1 1.68629 -1 5H1C1 2.79086 2.79086 1 5 1V-1ZM203.929 1C204.99 1 206.007 1.42143 206.757 2.17157L208.172 0.75736C207.046 -0.367858 205.52 -1 203.929 -1V1Z" fill="url(#paint0_linear_8_2029)" fill-opacity="0.67" mask="url(#path-1-inside-1_8_2029)"/>
<path d="M1.46447 53.4645L2.17157 52.7574L1.46447 53.4645ZM10.5355 62.5355L9.82843 63.2426L10.5355 62.5355ZM216.536 10.5355L215.828 11.2426L216.536 10.5355ZM207.464 1.46447L208.172 0.75736L207.464 1.46447ZM203.929 -1H5V1H203.929V-1ZM217.243 9.82843L208.172 0.75736L206.757 2.17157L215.828 11.2426L217.243 9.82843ZM219 59V14.0711H217V59H219ZM14.0711 65H213V63H14.0711V65ZM0.757359 54.1716L9.82843 63.2426L11.2426 61.8284L2.17157 52.7574L0.757359 54.1716ZM-1 5V49.9289H1V5H-1ZM2.17157 52.7574C1.42143 52.0072 1 50.9898 1 49.9289H-1C-1 51.5202 -0.367859 53.0464 0.757359 54.1716L2.17157 52.7574ZM14.0711 63C13.0102 63 11.9928 62.5786 11.2426 61.8284L9.82843 63.2426C10.9536 64.3679 12.4798 65 14.0711 65V63ZM217 59C217 61.2091 215.209 63 213 63V65C216.314 65 219 62.3137 219 59H217ZM215.828 11.2426C216.579 11.9928 217 13.0102 217 14.0711H219C219 12.4798 218.368 10.9536 217.243 9.82843L215.828 11.2426ZM5 -1C1.68629 -1 -1 1.68629 -1 5H1C1 2.79086 2.79086 1 5 1V-1ZM203.929 1C204.99 1 206.007 1.42143 206.757 2.17157L208.172 0.75736C207.046 -0.367858 205.52 -1 203.929 -1V1Z" fill="url(#paint1_linear_8_2029)" fill-opacity="0.67" mask="url(#path-1-inside-1_8_2029)"/>
</mask>
<g mask="url(#mask0_8_2029)">
<mask id="path-3-inside-2_8_2029" fill="white">
<path fill-rule="evenodd" clip-rule="evenodd" d="M0 5C0 2.23858 2.23858 0 5 0H203.929C205.255 0 206.527 0.526785 207.464 1.46447L216.536 10.5355C217.473 11.4732 218 12.745 218 14.0711V59C218 61.7614 215.761 64 213 64H14.0711C12.745 64 11.4732 63.4732 10.5355 62.5355L1.46447 53.4645C0.526784 52.5268 0 51.255 0 49.9289V5Z"/>
</mask>
<path d="M1.46447 53.4645L2.17157 52.7574L1.46447 53.4645ZM10.5355 62.5355L9.82843 63.2426L10.5355 62.5355ZM216.536 10.5355L215.828 11.2426L216.536 10.5355ZM207.464 1.46447L208.172 0.75736L207.464 1.46447ZM203.929 -1H5V1H203.929V-1ZM217.243 9.82843L208.172 0.75736L206.757 2.17157L215.828 11.2426L217.243 9.82843ZM219 59V14.0711H217V59H219ZM14.0711 65H213V63H14.0711V65ZM0.757359 54.1716L9.82843 63.2426L11.2426 61.8284L2.17157 52.7574L0.757359 54.1716ZM-1 5V49.9289H1V5H-1ZM2.17157 52.7574C1.42143 52.0072 1 50.9898 1 49.9289H-1C-1 51.5202 -0.367859 53.0464 0.757359 54.1716L2.17157 52.7574ZM14.0711 63C13.0102 63 11.9928 62.5786 11.2426 61.8284L9.82843 63.2426C10.9536 64.3679 12.4798 65 14.0711 65V63ZM217 59C217 61.2091 215.209 63 213 63V65C216.314 65 219 62.3137 219 59H217ZM215.828 11.2426C216.579 11.9928 217 13.0102 217 14.0711H219C219 12.4798 218.368 10.9536 217.243 9.82843L215.828 11.2426ZM5 -1C1.68629 -1 -1 1.68629 -1 5H1C1 2.79086 2.79086 1 5 1V-1ZM203.929 1C204.99 1 206.007 1.42143 206.757 2.17157L208.172 0.75736C207.046 -0.367858 205.52 -1 203.929 -1V1Z" fill="#0CC0D8" mask="url(#path-3-inside-2_8_2029)"/>
<g opacity="0.15" filter="url(#filter0_f_8_2029)">
<circle cx="26" cy="1" r="25" fill="white"/>
</g>
<g opacity="0.15" filter="url(#filter1_f_8_2029)">
<circle cx="191" cy="43" r="25" fill="white"/>
</g>
</g>
<defs>
<filter id="filter0_f_8_2029" x="-27" y="-52" width="106" height="106" filterUnits="userSpaceOnUse" color-interpolation-filters="sRGB">
<feFlood flood-opacity="0" result="BackgroundImageFix"/>
<feBlend mode="normal" in="SourceGraphic" in2="BackgroundImageFix" result="shape"/>
<feGaussianBlur stdDeviation="14" result="effect1_foregroundBlur_8_2029"/>
</filter>
<filter id="filter1_f_8_2029" x="138" y="-10" width="106" height="106" filterUnits="userSpaceOnUse" color-interpolation-filters="sRGB">
<feFlood flood-opacity="0" result="BackgroundImageFix"/>
<feBlend mode="normal" in="SourceGraphic" in2="BackgroundImageFix" result="shape"/>
<feGaussianBlur stdDeviation="14" result="effect1_foregroundBlur_8_2029"/>
</filter>
<linearGradient id="paint0_linear_8_2029" x1="0" y1="0" x2="36.4692" y2="25.4619" gradientUnits="userSpaceOnUse">
<stop stop-color="white"/>
<stop offset="0.927083" stop-color="white" stop-opacity="0"/>
</linearGradient>
<linearGradient id="paint1_linear_8_2029" x1="218" y1="64" x2="190.151" y2="41.5431" gradientUnits="userSpaceOnUse">
<stop stop-color="white"/>
<stop offset="0.927083" stop-color="white" stop-opacity="0"/>
</linearGradient>
</defs>
</svg>
