<svg width="160" height="160" viewBox="0 0 160 160" fill="none" xmlns="http://www.w3.org/2000/svg">
<path fill-rule="evenodd" clip-rule="evenodd" d="M48.5468 7.51539L50.0402 9.0088C69.1933 0.92892 90.9492 0.93944 110.096 9.04036L111.588 7.54758C91.5368 -1.17603 68.6054 -1.18675 48.5468 7.51539ZM9.02448 50.0028L7.53138 48.5097C-1.18694 68.5771 -1.1816 91.5245 7.54737 111.588L9.04015 110.096C0.933963 90.9368 0.928739 69.165 9.02448 50.0028ZM110.058 151.037L111.552 152.53C91.521 161.232 68.6212 161.243 48.5835 152.562L50.0773 151.068C69.209 159.127 90.9335 159.117 110.058 151.037ZM151.052 110.021L152.546 111.514C161.232 91.4927 161.237 68.6089 152.562 48.5838L151.068 50.0775C159.122 69.1967 159.117 90.9051 151.052 110.021Z" fill="#1AC4DA"/>
</svg>
