<svg width="18" height="17" viewBox="0 0 18 17" fill="none" xmlns="http://www.w3.org/2000/svg">
<path fill-rule="evenodd" clip-rule="evenodd" d="M0.666992 8.49935C0.666992 3.90018 4.40033 0.166016 9.00033 0.166016C13.6087 0.166016 17.3337 3.90018 17.3337 8.49935C17.3337 13.1002 13.6087 16.8327 9.00033 16.8327C4.40033 16.8327 0.666992 13.1002 0.666992 8.49935ZM8.26699 5.34102C8.26699 4.94185 8.60033 4.60768 9.00033 4.60768C9.40033 4.60768 9.72533 4.94185 9.72533 5.34102V9.02435C9.72533 9.42518 9.40033 9.74935 9.00033 9.74935C8.60033 9.74935 8.26699 9.42518 8.26699 9.02435V5.34102ZM9.00866 12.4002C8.60033 12.4002 8.27533 12.0668 8.27533 11.6668C8.27533 11.2668 8.60033 10.9418 9.00033 10.9418C9.40866 10.9418 9.73366 11.2668 9.73366 11.6668C9.73366 12.0668 9.40866 12.4002 9.00866 12.4002Z" fill="#9A8FC1"/>
</svg>
